<svg width="62" height="48" viewBox="0 0 62 48" fill="none" xmlns="http://www.w3.org/2000/svg">
<path d="M7 33H6V34H7V33ZM39 6C38.7348 6 38.4804 6.10536 38.2929 6.29289C38.1054 6.48043 38 6.73478 38 7C38 7.26522 38.1054 7.51957 38.2929 7.70711C38.4804 7.89464 38.7348 8 39 8V6ZM59 37V38H60V37H59ZM54 37V36H53V37H54ZM59 28C59.2652 28 59.5196 27.8946 59.7071 27.7071C59.8946 27.5196 60 27.2652 60 27C60 26.7348 59.8946 26.4804 59.7071 26.2929C59.5196 26.1054 59.2652 26 59 26V28ZM59 34C59.2652 34 59.5196 33.8946 59.7071 33.7071C59.8946 33.5196 60 33.2652 60 33C60 32.7348 59.8946 32.4804 59.7071 32.2929C59.5196 32.1054 59.2652 32 59 32V34ZM1 7C0.734784 7 0.48043 7.10536 0.292893 7.29289C0.105357 7.48043 0 7.73478 0 8C0 8.26522 0.105357 8.51957 0.292893 8.70711C0.48043 8.89464 0.734784 9 1 9V7ZM13 9C13.2652 9 13.5196 8.89464 13.7071 8.70711C13.8946 8.51957 14 8.26522 14 8C14 7.73478 13.8946 7.48043 13.7071 7.29289C13.5196 7.10536 13.2652 7 13 7V9ZM19 7C18.7348 7 18.4804 7.10536 18.2929 7.29289C18.1054 7.48043 18 7.73478 18 8C18 8.26522 18.1054 8.51957 18.2929 8.70711C18.4804 8.89464 18.7348 9 19 9V7ZM23 9C23.2652 9 23.5196 8.89464 23.7071 8.70711C23.8946 8.51957 24 8.26522 24 8C24 7.73478 23.8946 7.48043 23.7071 7.29289C23.5196 7.10536 23.2652 7 23 7V9ZM12 11C11.7348 11 11.4804 11.1054 11.2929 11.2929C11.1054 11.4804 11 11.7348 11 12C11 12.2652 11.1054 12.5196 11.2929 12.7071C11.4804 12.8946 11.7348 13 12 13V11ZM34 13C34.2652 13 34.5196 12.8946 34.7071 12.7071C34.8946 12.5196 35 12.2652 35 12C35 11.7348 34.8946 11.4804 34.7071 11.2929C34.5196 11.1054 34.2652 11 34 11V13ZM5 17C4.73478 17 4.48043 17.1054 4.29289 17.2929C4.10536 17.4804 4 17.7348 4 18C4 18.2652 4.10536 18.5196 4.29289 18.7071C4.48043 18.8946 4.73478 19 5 19V17ZM27 19C27.2652 19 27.5196 18.8946 27.7071 18.7071C27.8946 18.5196 28 18.2652 28 18C28 17.7348 27.8946 17.4804 27.7071 17.2929C27.5196 17.1054 27.2652 17 27 17V19ZM11 2H35V0H11V2ZM38 5V33H40V5H38ZM39 32H7V34H39V32ZM8 33V5H6V33H8ZM35 2C35.7957 2 36.5587 2.31607 37.1213 2.87868C37.6839 3.44129 38 4.20435 38 5H40C40 4.34339 39.8707 3.69321 39.6194 3.08658C39.3681 2.47996 38.9998 1.92876 38.5355 1.46447C38.0712 1.00017 37.52 0.631875 36.9134 0.380602C36.3068 0.129328 35.6566 0 35 0V2ZM11 0C9.67392 0 8.40215 0.526784 7.46447 1.46447C6.52678 2.40215 6 3.67392 6 5H8C8 4.20435 8.31607 3.44129 8.87868 2.87868C9.44129 2.31607 10.2044 2 11 2V0ZM39 8H52.046V6H39V8ZM54.913 10.118L57.691 19.144L59.602 18.556L56.825 9.53L54.913 10.118ZM58 21.203V37H60V21.203H58ZM48.172 32H39V34H48.172V32ZM59 36H53.828V38H59V36ZM53.121 35.707L50.293 32.879L48.879 34.293L51.707 37.121L53.121 35.707ZM48.172 34C48.3035 33.9999 48.4327 34.0257 48.5542 34.076C48.6757 34.1263 48.786 34.2 48.879 34.293L50.293 32.879C49.7305 32.3164 48.9676 32.0002 48.172 32V34ZM57.691 19.144C57.8961 19.8111 58.0002 20.5051 58 21.203H60C60 20.306 59.866 19.413 59.602 18.556L57.691 19.144ZM53.828 36C53.5628 35.9999 53.3085 35.8946 53.121 35.707L51.707 37.121C52.2695 37.6836 53.0324 37.9998 53.828 38V36ZM52.046 8C52.6875 8.00009 53.3122 8.20583 53.8282 8.58703C54.3442 8.96823 54.7244 9.50481 54.913 10.118L56.825 9.53C56.5106 8.50775 55.8766 7.61326 55.0163 6.9779C54.1559 6.34254 53.1145 5.99979 52.045 6V8H52.046ZM50 42C50 43.0609 49.5786 44.0783 48.8284 44.8284C48.0783 45.5786 47.0609 46 46 46V48C47.5913 48 49.1174 47.3679 50.2426 46.2426C51.3679 45.1174 52 43.5913 52 42H50ZM46 46C44.9391 46 43.9217 45.5786 43.1716 44.8284C42.4214 44.0783 42 43.0609 42 42H40C40 43.5913 40.6321 45.1174 41.7574 46.2426C42.8826 47.3679 44.4087 48 46 48V46ZM42 42C42 40.9391 42.4214 39.9217 43.1716 39.1716C43.9217 38.4214 44.9391 38 46 38V36C44.4087 36 42.8826 36.6321 41.7574 37.7574C40.6321 38.8826 40 40.4087 40 42H42ZM46 38C47.0609 38 48.0783 38.4214 48.8284 39.1716C49.5786 39.9217 50 40.9391 50 42H52C52 40.4087 51.3679 38.8826 50.2426 37.7574C49.1174 36.6321 47.5913 36 46 36V38ZM23 42C23 43.0609 22.5786 44.0783 21.8284 44.8284C21.0783 45.5786 20.0609 46 19 46V48C20.5913 48 22.1174 47.3679 23.2426 46.2426C24.3679 45.1174 25 43.5913 25 42H23ZM19 46C17.9391 46 16.9217 45.5786 16.1716 44.8284C15.4214 44.0783 15 43.0609 15 42H13C13 43.5913 13.6321 45.1174 14.7574 46.2426C15.8826 47.3679 17.4087 48 19 48V46ZM15 42C15 40.9391 15.4214 39.9217 16.1716 39.1716C16.9217 38.4214 17.9391 38 19 38V36C17.4087 36 15.8826 36.6321 14.7574 37.7574C13.6321 38.8826 13 40.4087 13 42H15ZM19 38C20.0609 38 21.0783 38.4214 21.8284 39.1716C22.5786 39.9217 23 40.9391 23 42H25C25 40.4087 24.3679 38.8826 23.2426 37.7574C22.1174 36.6321 20.5913 36 19 36V38ZM24 43H41V41H24V43ZM11.828 43H14V41H11.828V43ZM11.121 40.707L7.707 37.293L6.293 38.707L9.707 42.121L11.121 40.707ZM11.828 41C11.5628 40.9999 11.3085 40.8946 11.121 40.707L9.707 42.121C10.2695 42.6836 11.0324 42.9998 11.828 43V41ZM51 43H55V41H51V43ZM54 38H60V36H54V38ZM60 38V41H62V38H60ZM60 41H55V43H60V41ZM53 37V41H55V37H53ZM55 41H53C53 41.5304 53.2107 42.0391 53.5858 42.4142C53.9609 42.7893 54.4696 43 55 43V41ZM60 41V43C60.5304 43 61.0391 42.7893 61.4142 42.4142C61.7893 42.0391 62 41.5304 62 41H60ZM60 38H62C62 37.4696 61.7893 36.9609 61.4142 36.5858C61.0391 36.2107 60.5304 36 60 36V38ZM56 28H59V26H56V28ZM59 32H56V34H59V32ZM54 28V32H56V28H54ZM56 32H54C54 32.5304 54.2107 33.0391 54.5858 33.4142C54.9609 33.7893 55.4696 34 56 34V32ZM56 26C55.4696 26 54.9609 26.2107 54.5858 26.5858C54.2107 26.9609 54 27.4696 54 28H56V26ZM4 34H9V32H4V34ZM9 34V37H11V34H9ZM9 37H4V39H9V37ZM2 34V37H4V34H2ZM4 37H2C2 37.5304 2.21071 38.0391 2.58579 38.4142C2.96086 38.7893 3.46957 39 4 39V37ZM9 37V39C9.53043 39 10.0391 38.7893 10.4142 38.4142C10.7893 38.0391 11 37.5304 11 37H9ZM9 34H11C11 33.4696 10.7893 32.9609 10.4142 32.5858C10.0391 32.2107 9.53043 32 9 32V34ZM4 32C3.46957 32 2.96086 32.2107 2.58579 32.5858C2.21071 32.9609 2 33.4696 2 34H4V32ZM46 42V44C46.5304 44 47.0391 43.7893 47.4142 43.4142C47.7893 43.0391 48 42.5304 48 42H46ZM46 42H44C44 42.5304 44.2107 43.0391 44.5858 43.4142C44.9609 43.7893 45.4696 44 46 44V42ZM46 42V40C45.4696 40 44.9609 40.2107 44.5858 40.5858C44.2107 40.9609 44 41.4696 44 42H46ZM46 42H48C48 41.4696 47.7893 40.9609 47.4142 40.5858C47.0391 40.2107 46.5304 40 46 40V42ZM19 42V44C19.5304 44 20.0391 43.7893 20.4142 43.4142C20.7893 43.0391 21 42.5304 21 42H19ZM19 42H17C17 42.5304 17.2107 43.0391 17.5858 43.4142C17.9609 43.7893 18.4696 44 19 44V42ZM19 42V40C18.4696 40 17.9609 40.2107 17.5858 40.5858C17.2107 40.9609 17 41.4696 17 42H19ZM19 42H21C21 41.4696 20.7893 40.9609 20.4142 40.5858C20.0391 40.2107 19.5304 40 19 40V42ZM44 16.562V12H42V16.562H44ZM51.515 10H44V12H51.515V10ZM51.515 12L54.015 20L55.924 19.403L53.424 11.403L51.515 12ZM47.724 20L44 16.562L42.643 18.032L46.368 21.47L47.724 20ZM47.725 22H54.015V20H47.724L47.725 22ZM46.368 21.47C46.7374 21.8108 47.2225 22 47.725 22L47.724 20L46.368 21.47ZM54.015 20V22C54.3288 22 54.6381 21.9262 54.9181 21.7846C55.1981 21.6429 55.4408 21.4374 55.6266 21.1846C55.8125 20.9317 55.9362 20.6387 55.9879 20.3293C56.0395 20.0198 56.0177 19.7025 55.924 19.403L54.015 20ZM51.515 12L53.424 11.403C53.2969 10.9959 53.043 10.6411 52.6994 10.3885C52.3558 10.136 51.9415 9.99981 51.515 10V12ZM44 12V10C43.4696 10 42.9609 10.2107 42.5858 10.5858C42.2107 10.9609 42 11.4696 42 12H44ZM42 16.562C41.9999 16.8381 42.057 17.1113 42.1676 17.3643C42.2783 17.6173 42.4401 17.8446 42.643 18.032L44 16.562H42ZM1 9H13V7H1V9ZM19 9H23V7H19V9ZM12 13H34V11H12V13ZM5 19H27V17H5V19Z" fill="#1C2024"/>
</svg>
