<svg width="49" height="62" viewBox="0 0 49 62" fill="none" xmlns="http://www.w3.org/2000/svg">
<path d="M31.2389 59.8889L30.6149 60.6699L31.2399 59.8899L31.2389 59.8889ZM25.7389 55.4889L26.3629 54.7069L25.7379 55.4879L25.7389 55.4889ZM23.2389 55.4889L22.6149 54.7069L23.2399 55.4879L23.2389 55.4889ZM13.9479 5.47892L13.8679 4.48092L13.9479 5.47792V5.47892ZM3.59292 18.4999L2.83192 17.8509L3.59192 18.5009L3.59292 18.4999ZM5.47792 13.9469L4.48192 13.8679L5.47792 13.9479V13.9469ZM2.91092 29.6769L3.67192 29.0289L2.91192 29.6779L2.91092 29.6769ZM2.91092 19.2999L3.67192 19.9479L2.91192 19.2999H2.91092ZM3.59292 30.4779L2.83192 31.1259L3.59192 30.4779H3.59292ZM30.4779 45.3849L31.1269 46.1459L30.4769 45.3859L30.4779 45.3849ZM45.3859 18.4999L46.1459 17.8509L45.3859 18.5009V18.4999ZM34.4909 43.5609L34.3429 42.5719L34.4899 43.5619L34.4909 43.5609ZM14.4909 43.5609L14.6369 42.5719L14.4899 43.5619L14.4909 43.5609ZM20.1969 24.7809C20.0093 24.5934 19.7548 24.4881 19.4896 24.4882C19.2243 24.4883 18.9699 24.5938 18.7824 24.7814C18.5949 24.9691 18.4896 25.2235 18.4897 25.4888C18.4898 25.754 18.5953 26.0084 18.7829 26.1959L20.1969 24.7819V24.7809ZM23.4889 29.4899L22.7819 30.1969C22.8865 30.3017 23.0131 30.382 23.1525 30.4319C23.2918 30.4818 23.4406 30.5002 23.5879 30.4856C23.7353 30.4711 23.8775 30.424 24.0045 30.3478C24.1314 30.2716 24.2398 30.1681 24.3219 30.0449L23.4889 29.4879V29.4899ZM30.3209 21.0439C30.3965 20.9347 30.4495 20.8116 30.477 20.6816C30.5045 20.5517 30.5058 20.4176 30.4808 20.2872C30.4559 20.1568 30.4053 20.0326 30.3319 19.922C30.2584 19.8113 30.1637 19.7164 30.0532 19.6427C29.9427 19.5691 29.8186 19.5182 29.6883 19.493C29.5579 19.4678 29.4238 19.4689 29.2938 19.4961C29.1638 19.5233 29.0406 19.5761 28.9312 19.6514C28.8219 19.7268 28.7286 19.8231 28.6569 19.9349L30.3209 21.0439ZM32.9889 39.2119C33.2167 39.0784 33.3825 38.8601 33.45 38.6048C33.5175 38.3495 33.4812 38.0779 33.3492 37.8492C33.2172 37.6205 33 37.4534 32.7452 37.3842C32.4903 37.315 32.2185 37.3494 31.9889 37.4799L32.9889 39.2119ZM38.9779 28.3709C38.9439 28.4978 38.9352 28.6301 38.9523 28.7603C38.9695 28.8905 39.0121 29.0161 39.0777 29.1298C39.1434 29.2436 39.2308 29.3433 39.335 29.4233C39.4391 29.5032 39.5581 29.5619 39.6849 29.5959C39.8118 29.6299 39.9441 29.6386 40.0743 29.6215C40.2045 29.6044 40.3301 29.5618 40.4438 29.4961C40.5576 29.4305 40.6573 29.3431 40.7373 29.2389C40.8172 29.1347 40.8759 29.0158 40.9099 28.8889L38.9779 28.3709ZM39.2139 32.9889C39.2815 32.875 39.3259 32.7489 39.3443 32.6177C39.3628 32.4866 39.355 32.3531 39.3214 32.2249C39.2878 32.0968 39.2291 31.9767 39.1488 31.8714C39.0684 31.7661 38.9679 31.6779 38.8531 31.6118C38.7383 31.5457 38.6116 31.5031 38.4802 31.4864C38.3488 31.4697 38.2154 31.4792 38.0878 31.5145C37.9601 31.5498 37.8407 31.6101 37.7365 31.6918C37.6324 31.7736 37.5455 31.8753 37.4809 31.9909L39.2139 32.9889ZM35.0989 35.0979C34.9166 35.2864 34.8157 35.5389 34.8177 35.8011C34.8198 36.0633 34.9248 36.3142 35.1101 36.4998C35.2954 36.6853 35.5461 36.7906 35.8083 36.7931C36.0705 36.7956 36.3232 36.695 36.5119 36.5129L35.0989 35.0979ZM31.8639 59.1079L26.3639 54.7079L25.1139 56.2689L30.6149 60.6699L31.8639 59.1079ZM22.6149 54.7069L17.1139 59.1079L18.3629 60.6699L23.8639 56.2699L22.6149 54.7069ZM26.3639 54.7079C25.832 54.2824 25.1701 54.0506 24.4889 54.0506C23.8077 54.0506 23.1468 54.2814 22.6149 54.7069L23.8649 56.2689C24.0422 56.1272 24.2624 56.0499 24.4894 56.0499C24.7164 56.0499 24.9366 56.1272 25.1139 56.2689L26.3639 54.7079ZM17.1139 59.1079C16.9669 59.2253 16.7887 59.2989 16.6017 59.3201C16.4148 59.3413 16.2256 59.3094 16.056 59.2279C15.8864 59.1464 15.7432 59.0188 15.6429 58.8596C15.5425 58.7004 15.4892 58.5161 15.4889 58.3279H13.4889C13.4889 60.8429 16.3989 62.2419 18.3629 60.6699L17.1139 59.1079ZM30.6149 60.6699C32.5789 62.2419 35.4889 60.8429 35.4889 58.3279H33.4889C33.4888 58.5163 33.4355 58.7007 33.3351 58.8601C33.2348 59.0195 33.0915 59.1473 32.9217 59.2288C32.7519 59.3103 32.5625 59.3422 32.3754 59.3208C32.1882 59.2994 32.0109 59.2256 31.8639 59.1079L30.6149 60.6699ZM29.0289 3.67192L29.8299 4.35392L31.1259 2.83092L30.3259 2.14992L29.0289 3.67192ZM34.9509 6.47492L35.9979 6.55892L36.1579 4.56492L35.1089 4.48092L34.9509 6.47492ZM42.4189 12.9799L42.5029 14.0269L44.4969 13.8679L44.4129 12.8199L42.4189 12.9799ZM44.6239 19.1489L45.3059 19.9489L46.8279 18.6509L46.1459 17.8509L44.6239 19.1489ZM45.3059 29.0289L44.6239 29.8289L46.1469 31.1259L46.8279 30.3259L45.3059 29.0289ZM42.5029 34.9499L42.4189 35.9979L44.4129 36.1579L44.4969 35.1099L42.5029 34.9499ZM35.9979 42.4189L34.9499 42.5029L35.1099 44.4959L36.1579 44.4129L35.9979 42.4189ZM29.8289 44.6239L29.0289 45.3059L30.3269 46.8279L31.1269 46.1459L29.8289 44.6239ZM19.9489 45.3059L19.1489 44.6249L17.8519 46.1459L18.6519 46.8279L19.9489 45.3059ZM14.0279 42.5029L12.9799 42.4189L12.8199 44.4129L13.8679 44.4959L14.0279 42.5029ZM6.55892 35.9979L6.47492 34.9509L4.48192 35.1099L4.56492 36.1569L6.55892 35.9979ZM4.35392 29.8289L3.67192 29.0289L2.14992 30.3259L2.83192 31.1259L4.35392 29.8289ZM3.67192 19.9489L4.35392 19.1489L2.83192 17.8509L2.14992 18.6509L3.67192 19.9479V19.9489ZM6.47492 14.0269L6.55892 12.9799L4.56492 12.8199L4.48192 13.8679L6.47492 14.0279V14.0269ZM12.9799 6.55892L14.0269 6.47492L13.8679 4.48092L12.8209 4.56492L12.9799 6.55892ZM19.1489 4.35392L19.9489 3.67192L18.6519 2.14992L17.8519 2.83192L19.1489 4.35392ZM14.0269 6.47492C15.9149 6.32447 17.7073 5.58225 19.1489 4.35392L17.8519 2.83192C16.7306 3.78745 15.3365 4.36385 13.8679 4.48092L14.0269 6.47492ZM6.55892 12.9799C6.69126 11.3213 7.41012 9.76397 8.58661 8.5873C9.7631 7.41062 11.3213 6.69152 12.9799 6.55892L12.8209 4.56492C10.6882 4.735 8.68575 5.65931 7.17278 7.17209C5.65981 8.68488 4.73526 10.6872 4.56492 12.8199L6.55892 12.9799ZM4.35392 19.1489C5.58225 17.7073 6.32447 15.9149 6.47492 14.0269L4.48192 13.8679C4.36465 15.3361 3.78725 16.7299 2.83192 17.8509L4.35392 19.1489ZM3.67192 29.0289C2.59273 27.7624 2 26.1529 2 24.4889C2 22.825 2.59273 21.2154 3.67192 19.9489L2.14992 18.6509C0.762202 20.2794 0 22.3489 0 24.4884C0 26.6279 0.762202 28.6975 2.14992 30.3259L3.67192 29.0289ZM6.47492 34.9509C6.32447 33.0629 5.58225 31.2706 4.35392 29.8289L2.83192 31.1259C3.78745 32.2472 4.36485 33.6414 4.48192 35.1099L6.47492 34.9509ZM12.9799 42.4189C11.3213 42.2866 9.76397 41.5677 8.5873 40.3912C7.41062 39.2147 6.69152 37.6576 6.55892 35.9989L4.56492 36.1569C4.73503 38.2898 5.65948 40.2924 7.17247 41.8054C8.68546 43.3184 10.688 44.2428 12.8209 44.4129L12.9799 42.4189ZM29.0289 45.3059C27.7623 46.3854 26.1536 46.9783 24.4894 46.9783C22.8252 46.9783 21.2155 46.3854 19.9489 45.3059L18.6519 46.8279C20.2804 48.2156 22.3499 48.9778 24.4894 48.9778C26.6289 48.9778 28.6985 48.2156 30.3269 46.8279L29.0289 45.3059ZM42.4189 35.9979C42.2865 37.6569 41.5684 39.2144 40.3915 40.3912C39.2146 41.5679 37.6569 42.2868 35.9979 42.4189L36.1579 44.4129C38.2907 44.2426 40.293 43.318 41.8057 41.8051C43.3185 40.2921 44.2428 38.2907 44.4129 36.1579L42.4189 35.9979ZM44.6239 29.8289C43.3956 31.2706 42.6534 33.0619 42.5029 34.9499L44.4969 35.1099C44.614 33.6414 45.1914 32.2472 46.1469 31.1259L44.6239 29.8289ZM45.3059 19.9489C46.3851 21.2154 46.9778 22.825 46.9778 24.4889C46.9778 26.1529 46.3851 27.7624 45.3059 29.0289L46.8279 30.3259C48.2156 28.6975 48.9778 26.6279 48.9778 24.4884C48.9778 22.3489 48.2156 20.2794 46.8279 18.6509L45.3059 19.9479V19.9489ZM42.5029 14.0269C42.6534 15.9149 43.3956 17.7073 44.6239 19.1489L46.1459 17.8509C45.1906 16.7299 44.6142 15.3361 44.4969 13.8679L42.5029 14.0279V14.0269ZM35.9979 6.55892C37.6566 6.69126 39.2139 7.41012 40.3905 8.58661C41.5672 9.7631 42.2863 11.3213 42.4189 12.9799L44.4129 12.8199C44.2426 10.6873 43.3182 8.68516 41.8054 7.1724C40.2927 5.65963 38.2905 4.73522 36.1579 4.56492L35.9979 6.55892ZM29.8299 4.35392C31.2716 5.58225 33.0629 6.32447 34.9509 6.47492L35.1089 4.48092C33.6407 4.36365 32.2469 3.78625 31.1259 2.83092L29.8299 4.35392ZM30.3259 2.14992C28.6975 0.762202 26.6289 0 24.4894 0C22.3499 0 20.2804 0.762202 18.6519 2.14992L19.9489 3.67192C21.2154 2.59273 22.825 2 24.4889 2C26.1529 2 27.7624 2.59273 29.0289 3.67192L30.3259 2.14992ZM34.9499 42.5029C34.7459 42.5189 34.5439 42.5429 34.3409 42.5729L34.6359 44.5499C34.7929 44.5269 34.9509 44.5089 35.1099 44.4959L34.9499 42.5029ZM34.3409 42.5729C32.6746 42.8208 31.1113 43.5314 29.8289 44.6239L31.1269 46.1459C32.1244 45.2958 33.3396 44.7428 34.6359 44.5499L34.3429 42.5719L34.3409 42.5729ZM33.4889 43.5609V58.3279H35.4889V43.5609H33.4889ZM19.1489 44.6249C17.8664 43.5319 16.3027 42.8199 14.6359 42.5719L14.3419 44.5499C15.6383 44.7428 16.8544 45.2958 17.8519 46.1459L19.1489 44.6249ZM14.6359 42.5719C14.4338 42.5417 14.2307 42.5183 14.0269 42.5019L13.8679 44.4959C14.0279 44.5089 14.1849 44.5269 14.3419 44.5499L14.6359 42.5719ZM15.4889 58.3279V43.5609H13.4889V58.3279H15.4889ZM18.7819 26.1959L22.7819 30.1969L24.1959 28.7819L20.1969 24.7819L18.7819 26.1959ZM24.3219 30.0449L30.3209 21.0439L28.6569 19.9339L22.6569 28.9339L24.3209 30.0439L24.3219 30.0449ZM31.9889 37.4779C24.8149 41.6199 15.6409 39.1619 11.4989 31.9879L9.76692 32.9879C14.4609 41.1179 24.8579 43.9049 32.9889 39.2099L31.9889 37.4779ZM11.4989 31.9879C7.35692 24.8129 9.81492 15.6399 16.9889 11.4979L15.9889 9.76492C7.85892 14.4599 5.07192 24.8569 9.76692 32.9879L11.4989 31.9879ZM16.9889 11.4979C24.1629 7.35492 33.3369 9.81292 37.4789 16.9879L39.2109 15.9889C34.5169 7.85892 24.1209 5.07092 15.9889 9.76492L16.9889 11.4979ZM37.4789 16.9879C38.4664 18.6928 39.1073 20.576 39.3645 22.5293C39.6218 24.4826 39.4904 26.4685 38.9779 28.3709L40.9099 28.8889C41.4904 26.7328 41.6391 24.4822 41.3475 22.2684C41.056 20.0546 40.3298 17.9212 39.2109 15.9889L37.4789 16.9879ZM37.4809 31.9909C36.827 33.1268 36.0261 34.1715 35.0989 35.0979L36.5119 36.5119C37.5636 35.4612 38.4721 34.2773 39.2139 32.9889L37.4809 31.9909Z" fill="#1C2024"/>
</svg>
