<svg width="57" height="57" viewBox="0 0 57 57" fill="none" xmlns="http://www.w3.org/2000/svg">
<path d="M20.2623 1.145L21.2043 0.811L20.9173 0L20.0723 0.163L20.2623 1.145ZM35.2763 1.337L35.4903 0.36L34.6503 0.175L34.3423 0.978L35.2763 1.337ZM49.9433 19.363L49.8193 20.356L49.9433 19.364V19.363ZM43.8043 44.471C43.5391 44.471 43.2848 44.5764 43.0972 44.7639C42.9097 44.9514 42.8043 45.2058 42.8043 45.471C42.8043 45.7362 42.9097 45.9906 43.0972 46.1781C43.2848 46.3656 43.5391 46.471 43.8043 46.471V44.471ZM47.8043 45.471H48.8043C48.8043 45.2058 48.699 44.9514 48.5114 44.7639C48.3239 44.5764 48.0695 44.471 47.8043 44.471V45.471ZM41.8043 40.471C42.0695 40.471 42.3239 40.3656 42.5114 40.1781C42.699 39.9906 42.8043 39.7362 42.8043 39.471C42.8043 39.2058 42.699 38.9514 42.5114 38.7639C42.3239 38.5764 42.0695 38.471 41.8043 38.471V40.471ZM37.8043 39.471H36.8043C36.8043 39.7362 36.9097 39.9906 37.0972 40.1781C37.2848 40.3656 37.5391 40.471 37.8043 40.471V39.471ZM47.7343 41.636C47.7784 41.8976 47.9245 42.1311 48.1406 42.2849C48.3568 42.4388 48.6252 42.5005 48.8868 42.4565C49.1485 42.4125 49.3819 42.2663 49.5358 42.0502C49.6896 41.834 49.7514 41.5656 49.7073 41.304L47.7343 41.636ZM37.8743 43.304C37.8303 43.0424 37.6841 42.8089 37.468 42.6551C37.2519 42.5012 36.9835 42.4395 36.7218 42.4835C36.4602 42.5275 36.2268 42.6737 36.0729 42.8898C35.919 43.106 35.8573 43.3744 35.9013 43.636L37.8743 43.304ZM46.8043 49.471C46.8043 49.7362 46.9097 49.9906 47.0972 50.1781C47.2848 50.3656 47.5391 50.471 47.8043 50.471C48.0695 50.471 48.3239 50.3656 48.5114 50.1781C48.699 49.9906 48.8043 49.7362 48.8043 49.471H46.8043ZM38.8043 35.471C38.8043 35.2058 38.699 34.9514 38.5114 34.7639C38.3239 34.5764 38.0695 34.471 37.8043 34.471C37.5391 34.471 37.2848 34.5764 37.0972 34.7639C36.9097 34.9514 36.8043 35.2058 36.8043 35.471H38.8043ZM13.2803 4.303C15.5888 3.33114 17.992 2.60188 20.4513 2.127L20.0723 0.163C17.4769 0.664335 14.9406 1.43414 12.5043 2.46L13.2803 4.303ZM2.00032 9.053L13.2803 4.303L12.5043 2.46L1.22432 7.21L2.00032 9.053ZM4.54032 18.371L2.00032 9.053L0.0703247 9.579L2.61132 18.896L4.54032 18.371ZM10.5223 17.624L4.54032 18.371L4.78932 20.355L10.7703 19.608L10.5223 17.624ZM11.9223 48.388L12.7693 19.668L10.7703 19.608L9.92333 48.328L11.9233 48.388H11.9223ZM27.8043 51.471C22.6618 51.4756 17.544 50.7593 12.6003 49.343L12.0483 51.265C17.1715 52.7329 22.4751 53.4754 27.8043 53.471V51.471ZM50.0683 18.371L44.0863 17.624L43.8383 19.608L49.8193 20.356L50.0683 18.371ZM52.6083 9.053L50.0683 18.371L51.9973 18.897L54.5383 9.579L52.6083 9.053ZM41.3283 4.303L52.6083 9.053L53.3853 7.21L42.1053 2.46L41.3283 4.303ZM35.0613 2.313C37.2013 2.783 39.2993 3.449 41.3283 4.303L42.1053 2.46C39.9691 1.56047 37.7542 0.857565 35.4903 0.36L35.0613 2.313ZM27.8043 1.471C25.4049 1.47261 23.0133 1.19644 20.6773 0.648L20.2193 2.595C22.6563 3.168 25.1953 3.471 27.8043 3.471V1.471ZM27.8043 5.471C26.4338 5.47121 25.0933 5.06919 23.9491 4.31478C22.8048 3.56037 21.9072 2.48675 21.3673 1.227L19.5293 2.016C20.2235 3.63525 21.3776 5.01521 22.8485 5.98487C24.3194 6.95452 26.0425 7.47125 27.8043 7.471V5.471ZM21.3673 1.227C21.3086 1.09011 21.2542 0.951372 21.2043 0.811L19.3193 1.479C19.3843 1.661 19.4543 1.839 19.5293 2.016L21.3673 1.227ZM34.9313 0.648C32.5954 1.19642 30.2038 1.47259 27.8043 1.471V3.471C30.4133 3.471 32.9523 3.168 35.3893 2.595L34.9313 0.648ZM34.3423 0.978C34.3106 1.06197 34.2763 1.14532 34.2413 1.228L36.0793 2.016C36.1243 1.91 36.1683 1.803 36.2093 1.695L34.3423 0.978ZM34.2413 1.228C33.7012 2.48738 32.8034 3.56058 31.6592 4.31461C30.515 5.06865 29.1746 5.47037 27.8043 5.47V7.47C31.5183 7.47 34.7043 5.221 36.0793 2.015L34.2413 1.226V1.228ZM54.5383 9.579C54.666 9.11132 54.6195 8.61317 54.4074 8.17722C54.1953 7.74127 53.8321 7.39719 53.3853 7.209L52.6083 9.053L54.5383 9.579ZM49.8193 20.356C50.2972 20.4158 50.7806 20.3011 51.1807 20.0331C51.5808 19.7651 51.8708 19.3617 51.9973 18.897L50.0683 18.371L49.8193 20.356ZM43.8383 19.608L44.0863 17.624C43.8001 17.5882 43.5094 17.6148 43.2344 17.702C42.9594 17.7891 42.7065 17.9347 42.493 18.1288C42.2796 18.3229 42.1106 18.5608 41.9978 18.8263C41.885 19.0919 41.8309 19.3786 41.8393 19.667L43.8383 19.608ZM9.92333 48.328C9.88433 49.662 10.7343 50.888 12.0483 51.265L12.6003 49.343C12.3972 49.2818 12.2203 49.1547 12.0975 48.9818C11.9747 48.8088 11.9131 48.5999 11.9223 48.388L9.92333 48.328ZM10.7703 19.608L12.7693 19.668C12.7779 19.3794 12.7249 19.0925 12.6121 18.8267C12.4993 18.561 12.3303 18.3229 12.1167 18.1287C11.9031 17.9345 11.65 17.7888 11.3748 17.7017C11.0996 17.6146 10.8088 17.5881 10.5223 17.624L10.7703 19.608ZM2.61132 18.898C2.73807 19.3625 3.02812 19.7657 3.42821 20.0335C3.82831 20.3013 4.31159 20.4148 4.78932 20.355L4.54032 18.371L2.61132 18.898ZM1.22332 7.209C0.776537 7.39719 0.414316 7.74127 0.202226 8.17722C-0.00986302 8.61317 -0.0573812 9.11132 0.0703247 9.579L2.00132 9.052L1.22332 7.209ZM54.8043 42.471C54.8043 49.099 49.4313 54.471 42.8043 54.471V56.471C50.5363 56.471 56.8043 50.203 56.8043 42.471H54.8043ZM30.8043 42.471C30.8043 35.844 36.1773 30.471 42.8043 30.471V28.471C35.0723 28.471 28.8043 34.739 28.8043 42.471H30.8043ZM42.8043 30.471C42.9043 30.471 43.0043 30.472 43.1043 30.475L43.1533 28.475C43.037 28.4722 42.9207 28.4709 42.8043 28.471V30.471ZM43.1043 30.475C49.5933 30.633 54.8043 35.943 54.8043 42.471H56.8043C56.8043 34.856 50.7243 28.661 43.1533 28.475L43.1043 30.475ZM41.8393 19.667L42.1293 29.505L44.1283 29.445L43.8383 19.608L41.8393 19.667ZM42.8043 54.471C39.7113 54.471 36.8933 53.301 34.7643 51.38L33.4243 52.864C35.9944 55.1898 39.3382 56.4756 42.8043 56.471V54.471ZM34.7643 51.38C33.516 50.2561 32.5182 48.882 31.8359 47.3471C31.1537 45.8121 30.8022 44.1507 30.8043 42.471H28.8043C28.8043 46.595 30.5883 50.303 33.4243 52.864L34.7643 51.38ZM33.9833 51.128C31.9553 51.355 29.8933 51.471 27.8043 51.471V53.471C29.9683 53.471 32.1043 53.351 34.2053 53.116L33.9833 51.128ZM43.8043 46.471H47.8043V44.471H43.8043V46.471ZM41.8043 38.471H37.8043V40.471H41.8043V38.471ZM46.3403 46.007C45.876 46.4714 45.3248 46.8398 44.718 47.0912C44.1113 47.3426 43.461 47.4719 42.8043 47.4719C42.1476 47.4719 41.4973 47.3426 40.8906 47.0912C40.2839 46.8398 39.7326 46.4714 39.2683 46.007L37.8543 47.421C38.5043 48.0711 39.2761 48.5868 40.1254 48.9386C40.9747 49.2904 41.885 49.4715 42.8043 49.4715C43.7236 49.4715 44.6339 49.2904 45.4833 48.9386C46.3326 48.5868 47.1043 48.0711 47.7543 47.421L46.3403 46.007ZM39.2683 38.936C39.7326 38.4716 40.2839 38.1031 40.8906 37.8518C41.4973 37.6004 42.1476 37.4711 42.8043 37.4711C43.461 37.4711 44.1113 37.6004 44.718 37.8518C45.3248 38.1031 45.876 38.4706 46.3403 38.935L47.7543 37.521C47.1043 36.8709 46.3326 36.3552 45.4833 36.0034C44.6339 35.6516 43.7236 35.4705 42.8043 35.4705C41.885 35.4705 40.9747 35.6516 40.1254 36.0034C39.2761 36.3552 38.5043 36.8699 37.8543 37.52L39.2683 38.936ZM46.3403 38.935C47.0753 39.6675 47.5627 40.6126 47.7343 41.636L49.7073 41.306C49.467 39.8715 48.7841 38.5481 47.7543 37.521L46.3403 38.935ZM39.2683 46.007C38.5333 45.2745 38.0459 44.3294 37.8743 43.306L35.9013 43.636C36.1416 45.0705 36.8245 46.3939 37.8543 47.421L39.2683 46.007ZM46.9713 45.236C46.7913 45.508 46.5813 45.767 46.3403 46.007L47.7543 47.421C48.0837 47.0918 48.3795 46.7307 48.6373 46.343L46.9713 45.236ZM46.8043 45.471V45.79H48.8043V45.471H46.8043ZM46.8043 45.79V49.471H48.8043V45.79H46.8043ZM38.6373 39.706C38.8173 39.435 39.0263 39.176 39.2683 38.936L37.8543 37.52C37.5193 37.855 37.2253 38.217 36.9713 38.599L38.6373 39.706ZM38.8043 39.471V39.152H36.8043V39.473H38.8043V39.471ZM38.8043 39.152V35.473H36.8043V39.152H38.8043Z" fill="#1C2024"/>
</svg>
